<svg xmlns="http://www.w3.org/2000/svg" viewBox="0 0 19 19"><defs><style>.cls-1{fill:none;stroke:#007ab7;stroke-miterlimit:10;}.cls-2{fill:#007ab7;}</style></defs><title>Layer 2</title><g id="Layer_2" data-name="Layer 2"><g id="Layer_1-2" data-name="Layer 1"><g id="Layer_2-2" data-name="Layer 2"><g id="Layer_17" data-name="Layer 17"><g id="Layer_11" data-name="Layer 11"><g id="ContactInfo"><circle class="cls-1" cx="9.5" cy="9.5" r="9"/><path class="cls-2" d="M8.75,12a4,4,0,0,1,.16-1.28,3.13,3.13,0,0,1,.8-.94c.42-.49.72-.88.9-1.14a1.85,1.85,0,0,0,.26-1A1.25,1.25,0,0,0,9.51,6.3a1.51,1.51,0,0,0-1,.31,1.08,1.08,0,0,0-.41.88H6.91a2,2,0,0,1,.72-1.64,2.79,2.79,0,0,1,1.88-.62,2.8,2.8,0,0,1,1.94.64,2.28,2.28,0,0,1,.69,1.78,2.76,2.76,0,0,1-.44,1.5,8.74,8.74,0,0,1-1.19,1.39,1.47,1.47,0,0,0-.41.61A3.53,3.53,0,0,0,10,12Zm1.3,2.6H8.74V13.3h1.31Z"/></g></g></g></g></g></g></svg>