<svg xmlns="http://www.w3.org/2000/svg" viewBox="0 0 60 60"><defs><style>.cls-1{fill:#4d148c;}.cls-2,.cls-3{fill:none;stroke:#fff;stroke-miterlimit:10;}.cls-2{stroke-linecap:round;}</style></defs><title>Asset 3</title><g id="Layer_2" data-name="Layer 2"><g id="feedback"><circle class="cls-1" cx="30" cy="30" r="30"/><line class="cls-2" x1="30" y1="22.99" x2="30" y2="32.32"/><polyline class="cls-2" points="33.65 29.41 30 32.32 26.35 29.41"/><path class="cls-3" d="M20.4,16H39.6a1.32,1.32,0,0,1,1.33,1.3V42.7A1.32,1.32,0,0,1,39.6,44H26.24a1.34,1.34,0,0,1-.93-.38l-2.93-2.88-2.92-2.87a1.29,1.29,0,0,1-.39-.92V17.3A1.32,1.32,0,0,1,20.4,16Z"/><path class="cls-3" d="M19.07,37.49h5.3a1.32,1.32,0,0,1,1.33,1.3V44"/></g></g></svg>